<?xml version="1.0" encoding="utf-8"?>
<!-- Svg Vector Icons : http://www.onlinewebfonts.com/icon -->
<!DOCTYPE svg PUBLIC "-//W3C//DTD SVG 1.1//EN" "http://www.w3.org/Graphics/SVG/1.1/DTD/svg11.dtd">
<svg version="1.1" xmlns="http://www.w3.org/2000/svg" xmlns:xlink="http://www.w3.org/1999/xlink" x="0px" y="0px" viewBox="0 0 1000 1000" enable-background="new 0 0 1000 1000" xml:space="preserve">
<metadata> Svg Vector Icons : http://www.onlinewebfonts.com/icon </metadata>
<g><path d="M432.6,677.6L316.3,567.4l116.4-110.3L402,420.4l-153.1,147l153.1,147L432.6,677.6z M598,708.3l153.1-147L598,420.4l-30.6,36.8l116.4,110.3L567.4,677.6L598,708.3z M910.4,132.5H89.6c-42.9,0-79.6,36.8-79.6,79.6v575.8c0,42.9,36.8,79.6,79.6,79.6h820.8c42.9,0,79.6-36.8,79.6-79.6V212.1C990,169.3,953.3,132.5,910.4,132.5z M469.4,181.5c30.6,0,49,24.5,49,49c0,30.6-24.5,49-49,49c-30.6,6.1-49-18.4-49-42.9C420.4,206,438.8,181.5,469.4,181.5z M316.3,181.5c30.6,0,49,24.5,49,49c0,30.6-24.5,49-49,49c-30.6,0-49-24.5-49-49S285.6,181.5,316.3,181.5z M163.1,181.5c30.6,0,49,24.5,49,49c0,30.6-24.5,49-49,49c-30.6,6.1-49-18.4-49-42.9C114.1,206,132.5,181.5,163.1,181.5z M928.8,769.5c0,24.5-18.4,36.8-36.8,36.8H108c-18.4,0-36.8-18.4-36.8-36.8V340.8h857.5V769.5z"/></g>
</svg>