<?xml version="1.0" encoding="utf-8"?>
<!-- Svg Vector Icons : http://www.onlinewebfonts.com/icon -->
<!DOCTYPE svg PUBLIC "-//W3C//DTD SVG 1.1//EN" "http://www.w3.org/Graphics/SVG/1.1/DTD/svg11.dtd">
<svg version="1.1" xmlns="http://www.w3.org/2000/svg" xmlns:xlink="http://www.w3.org/1999/xlink" x="0px" y="0px" viewBox="0 0 1000 1000" enable-background="new 0 0 1000 1000" xml:space="preserve">
<metadata> Svg Vector Icons : http://www.onlinewebfonts.com/icon </metadata>
<g><path d="M850,990H150c-77.3,0-140-62.7-140-140V150C10,72.7,72.7,10,150,10h700c77.3,0,140,62.7,140,140v700C990,927.3,927.3,990,850,990z M920,132.5c0-29-23.5-52.5-52.5-52.5h-735c-29,0-52.5,23.5-52.5,52.5v735c0,29,23.5,52.5,52.5,52.5h735c29,0,52.5-23.5,52.5-52.5V132.5z M632.9,414.3l-15,98.9h-82.4c0,125.5,0,266.9,0,266.9h-97c0,0,0-140,0-266.9h-71.4v-98.9h71.4v-76.9c0-45.9,22.4-117.4,120.9-117.4l72.1,0.4v95.9c0,0-52.5,0-62.9,0c-10.5,0-33.1,5.1-33.1,26.9v71.1H632.9z"/></g>
</svg>